<svg width="378" height="360" viewBox="0 0 378 360" fill="none" xmlns="http://www.w3.org/2000/svg">
<g filter="url(#filter0_d_0_1)">
<rect x="61" y="35" width="77" height="83" rx="10" fill="#010101"/>
</g>
<g filter="url(#filter1_d_0_1)">
<path d="M90.5 102C95.744 102 100 98.192 100 93.5V85H90.5C85.256 85 81 88.808 81 93.5C81 98.192 85.256 102 90.5 102Z" fill="#0ACF83"/>
</g>
<g filter="url(#filter2_d_0_1)">
<path d="M81 76.5C81 71.808 85.256 68 90.5 68H100V85H90.5C85.256 85 81 81.192 81 76.5Z" fill="#A259FF"/>
</g>
<g filter="url(#filter3_d_0_1)">
<path d="M81 59.5C81 54.808 85.256 51 90.5 51H100V68H90.5C85.256 68 81 64.192 81 59.5Z" fill="#F24E1E"/>
</g>
<g filter="url(#filter4_d_0_1)">
<path d="M99 51H109C114.52 51 119 54.808 119 59.5C119 64.192 114.52 68 109 68H99V51Z" fill="#FF7262"/>
</g>
<g filter="url(#filter5_d_0_1)">
<path d="M119 76.5C119 81.192 114.52 85 109 85C103.48 85 99 81.192 99 76.5C99 71.808 103.48 68 109 68C114.52 68 119 71.808 119 76.5Z" fill="#1ABCFE"/>
</g>
<g filter="url(#filter6_d_0_1)">
<rect x="4" y="130" width="137" height="137" rx="10" fill="#CED2FC"/>
</g>
<g filter="url(#filter7_d_0_1)">
<path d="M45.6148 198L32.5946 209.988C32.5946 209.988 31.2567 210.996 32.5946 212.797L38.6397 218.366C38.6397 218.366 40.0755 219.927 42.1966 218.151L56 207.551L45.6148 198Z" fill="#1070B3"/>
</g>
<g filter="url(#filter8_d_0_1)">
<path d="M67.3234 197L89 180.161L88.8593 163.315C88.8593 163.315 87.9336 159.638 84.8454 161.552L56 188.26L67.3234 197Z" fill="#0877B9"/>
</g>
<g filter="url(#filter9_d_0_1)">
<path d="M85.6315 235.031C86.8799 236.37 88.3926 235.931 88.3926 235.931L105.142 227.284C107.287 225.753 106.986 223.852 106.986 223.852V172.213C106.986 169.943 104.768 169.158 104.768 169.158L90.2504 161.826C87.0781 159.772 85 162.195 85 162.195C85 162.195 87.6729 160.18 88.98 163.996V232.277C88.98 232.746 88.8845 233.208 88.6936 233.623C88.3118 234.431 87.482 235.185 85.492 234.87L85.6315 235.031Z" fill="#3C99D4"/>
</g>
<g filter="url(#filter10_d_0_1)">
<path d="M32.7348 187.575C32.7348 187.575 30.8537 186.229 33.1111 184.432L38.3704 179.763C38.3704 179.763 39.8753 178.191 41.4665 179.56L90 216.04V233.533C90 233.533 89.9765 236.28 86.4258 235.977L32.7348 187.575Z" fill="#2489CA"/>
</g>
<g filter="url(#filter11_d_0_1)">
<rect x="276" y="118" width="98" height="98" rx="10" fill="#F9D82A"/>
</g>
<g filter="url(#filter12_d_0_1)">
<path d="M302.438 191.588L298 136L351 136.112L346.307 191.588L324.7 198L302.438 191.588Z" fill="#E34F26"/>
</g>
<g filter="url(#filter13_d_0_1)">
<path d="M325 192V142L347 142.073L343.077 186.807L325 192Z" fill="#EF652A"/>
</g>
<g filter="url(#filter14_d_0_1)">
<path d="M340.374 154.625L341 148H307L308.878 168.311H332.343L331.423 176.973L323.908 178.975L316.283 176.791L315.878 171.623H309.136L310.058 182.178L323.908 186L337.869 182.178L339.747 161.577H315.104L314.404 154.625H340.374Z" fill="white"/>
</g>
<g filter="url(#filter15_d_0_1)">
<rect x="171" width="104" height="104" rx="10" fill="#03008A"/>
</g>
<g filter="url(#filter16_d_0_1)">
<path d="M252.824 52.0065C252.824 47.7971 247.939 43.8078 240.449 41.3339C242.178 33.0963 241.41 26.5425 238.025 24.4442C237.245 23.952 236.333 23.7189 235.336 23.7189V26.6072C235.889 26.6072 236.333 26.7238 236.705 26.944C238.337 27.9543 239.045 31.8011 238.493 36.7488C238.361 37.9663 238.145 39.2486 237.881 40.5568C235.528 39.9351 232.96 39.4558 230.26 39.145C228.639 36.7488 226.959 34.5728 225.267 32.6689C229.179 28.7443 232.852 26.5943 235.348 26.5943V23.7059C232.048 23.7059 227.727 26.2446 223.358 30.6483C218.99 26.2705 214.669 23.7577 211.368 23.7577V26.6461C213.853 26.6461 217.537 28.7832 221.45 32.6818C219.77 34.5858 218.089 36.7488 216.493 39.145C213.781 39.4558 211.212 39.9351 208.86 40.5697C208.584 39.2745 208.38 38.0181 208.236 36.8136C207.672 31.8658 208.368 28.019 209.988 26.9958C210.348 26.7627 210.816 26.659 211.368 26.659V23.7707C210.36 23.7707 209.448 24.0038 208.656 24.496C205.283 26.5943 204.527 33.1351 206.267 41.3469C198.802 43.8337 193.941 47.81 193.941 52.0065C193.941 56.216 198.826 60.2053 206.315 62.6791C204.587 70.9168 205.355 77.4706 208.74 79.5688C209.52 80.061 210.432 80.2942 211.44 80.2942C214.741 80.2942 219.062 77.7555 223.43 73.3518C227.799 77.7296 232.12 80.2424 235.42 80.2424C236.429 80.2424 237.341 80.0092 238.133 79.517C241.506 77.4188 242.262 70.8779 240.521 62.6662C247.963 60.1923 252.824 56.203 252.824 52.0065V52.0065ZM237.197 43.3674C236.753 45.0382 236.201 46.7609 235.576 48.4835C235.084 47.4473 234.568 46.4112 234.004 45.375C233.452 44.3388 232.864 43.3285 232.276 42.3442C233.98 42.6162 235.624 42.9529 237.197 43.3674ZM231.7 57.1615C230.764 58.9101 229.803 60.5679 228.807 62.1093C227.019 62.2776 225.207 62.3683 223.382 62.3683C221.57 62.3683 219.758 62.2776 217.981 62.1222C216.985 60.5809 216.013 58.936 215.077 57.2004C214.165 55.5036 213.337 53.781 212.58 52.0454C213.325 50.3098 214.165 48.5742 215.065 46.8774C216.001 45.1289 216.961 43.471 217.957 41.9297C219.746 41.7613 221.558 41.6707 223.382 41.6707C225.195 41.6707 227.007 41.7613 228.783 41.9167C229.779 43.4581 230.752 45.103 231.688 46.8386C232.6 48.5353 233.428 50.258 234.184 51.9936C233.428 53.7292 232.6 55.4648 231.7 57.1615ZM235.576 55.4777C236.225 57.2133 236.777 58.9489 237.233 60.6327C235.661 61.0472 234.004 61.3969 232.288 61.6689C232.876 60.6716 233.464 59.6483 234.016 58.5992C234.568 57.563 235.084 56.5139 235.576 55.4777ZM223.406 69.2977C222.29 68.0543 221.174 66.6684 220.07 65.153C221.15 65.2048 222.254 65.2437 223.37 65.2437C224.499 65.2437 225.615 65.2178 226.707 65.153C225.627 66.6684 224.511 68.0543 223.406 69.2977ZM214.477 61.6689C212.772 61.3969 211.128 61.0601 209.556 60.6457C210 58.9748 210.552 57.2522 211.176 55.5295C211.668 56.5657 212.184 57.6019 212.748 58.6381C213.313 59.6742 213.889 60.6845 214.477 61.6689ZM223.346 34.7153C224.463 35.9587 225.579 37.3446 226.683 38.86C225.603 38.8082 224.499 38.7694 223.382 38.7694C222.254 38.7694 221.138 38.7953 220.046 38.86C221.126 37.3446 222.242 35.9587 223.346 34.7153ZM214.465 42.3442C213.877 43.3415 213.289 44.3647 212.736 45.4138C212.184 46.45 211.668 47.4862 211.176 48.5224C210.528 46.7868 209.976 45.0512 209.52 43.3674C211.092 42.9659 212.748 42.6162 214.465 42.3442V42.3442ZM203.603 58.5603C199.354 56.6046 196.606 54.04 196.606 52.0065C196.606 49.973 199.354 47.3955 203.603 45.4527C204.635 44.9735 205.763 44.546 206.927 44.1445C207.612 46.6832 208.512 49.3254 209.628 52.0324C208.524 54.7265 207.636 57.3558 206.963 59.8815C205.775 59.48 204.647 59.0396 203.603 58.5603ZM210.06 77.0691C208.428 76.0588 207.72 72.212 208.272 67.2642C208.404 66.0467 208.62 64.7645 208.884 63.4563C211.236 64.078 213.805 64.5572 216.505 64.8681C218.125 67.2642 219.806 69.4402 221.498 71.3442C217.585 75.2687 213.913 77.4188 211.416 77.4188C210.876 77.4058 210.42 77.2893 210.06 77.0691V77.0691ZM238.529 67.1995C239.093 72.1472 238.397 75.994 236.777 77.0173C236.417 77.2504 235.949 77.354 235.396 77.354C232.912 77.354 229.227 75.2169 225.315 71.3183C226.995 69.4143 228.675 67.2513 230.272 64.8551C232.984 64.5443 235.552 64.065 237.905 63.4304C238.181 64.7386 238.397 65.9949 238.529 67.1995V67.1995ZM243.15 58.5603C242.118 59.0396 240.989 59.467 239.825 59.8685C239.141 57.3299 238.241 54.6876 237.125 51.9806C238.229 49.2866 239.117 46.6573 239.789 44.1316C240.977 44.5331 242.106 44.9735 243.162 45.4527C247.411 47.4085 250.159 49.973 250.159 52.0065C250.147 54.04 247.399 56.6175 243.15 58.5603V58.5603Z" fill="#61DAFB"/>
<path d="M223.37 57.9257C226.4 57.9257 228.855 55.2756 228.855 52.0066C228.855 48.7375 226.4 46.0874 223.37 46.0874C220.341 46.0874 217.885 48.7375 217.885 52.0066C217.885 55.2756 220.341 57.9257 223.37 57.9257Z" fill="#61DAFB"/>
</g>
<g filter="url(#filter17_d_0_1)">
<rect x="180" y="141" width="56" height="56" rx="10" fill="#031D1F"/>
</g>
<g filter="url(#filter18_d_0_1)">
<path d="M208 157C202.933 157 199.767 159.667 198.5 165C200.4 162.333 202.617 161.333 205.15 162C206.595 162.38 207.628 163.484 208.772 164.706C210.635 166.696 212.791 169 217.5 169C222.567 169 225.734 166.333 227 161C225.1 163.666 222.884 164.666 220.35 164C218.905 163.62 217.872 162.516 216.728 161.294C214.865 159.303 212.709 157 208 157V157ZM198.5 169C193.433 169 190.266 171.666 189 177C190.9 174.333 193.116 173.333 195.65 174C197.095 174.381 198.128 175.484 199.272 176.706C201.135 178.696 203.291 181 208 181C213.067 181 216.233 178.333 217.5 173C215.6 175.667 213.383 176.667 210.85 176C209.405 175.62 208.372 174.515 207.228 173.294C205.365 171.304 203.209 169 198.5 169V169Z" fill="#06B6D4"/>
</g>
<g filter="url(#filter19_d_0_1)">
<rect x="223" y="230" width="95" height="95" rx="10" fill="#E4DCE6"/>
</g>
<g filter="url(#filter20_d_0_1)">
<path fill-rule="evenodd" clip-rule="evenodd" d="M253.254 255C249.888 255 247.397 257.884 247.509 261.011C247.616 264.016 247.477 267.907 246.476 271.081C245.471 274.263 243.773 276.28 241 276.539V279.461C243.773 279.721 245.471 281.736 246.475 284.919C247.477 288.093 247.615 291.984 247.508 294.989C247.397 298.116 249.888 301 253.255 301H287.75C291.116 301 293.607 298.116 293.495 294.989C293.388 291.984 293.528 288.093 294.528 284.919C295.533 281.736 297.226 279.72 300 279.461V276.539C297.227 276.279 295.533 274.264 294.528 271.081C293.527 267.908 293.388 264.016 293.495 261.011C293.607 257.884 291.116 255 287.75 255H253.254H253.254ZM281 283.316C281 287.622 277.718 290.234 272.271 290.234H263C262.735 290.234 262.48 290.131 262.293 289.947C262.105 289.764 262 289.515 262 289.255V266.745C262 266.485 262.105 266.236 262.293 266.053C262.48 265.869 262.735 265.766 263 265.766H272.219C276.76 265.766 279.741 268.174 279.741 271.87C279.741 274.465 277.736 276.788 275.181 277.195V277.33C278.659 277.703 281 280.06 281 283.316ZM271.261 268.869H265.974V276.177H270.427C273.869 276.177 275.767 274.82 275.767 272.396C275.766 270.123 274.134 268.869 271.261 268.869ZM265.974 279.077V287.131H271.455C275.039 287.131 276.937 285.723 276.937 283.078C276.937 280.433 274.986 279.076 271.225 279.076H265.974V279.077Z" fill="#7952B3"/>
</g>
<g filter="url(#filter21_d_0_1)">
<rect x="121" y="279" width="73" height="73" rx="10" fill="#85997E"/>
</g>
<g filter="url(#filter22_d_0_1)">
<path d="M159.279 337.44C159.336 336.735 159.654 336.151 160 335.568C159.653 335.414 159.394 335.11 159.192 334.77C159.018 334.448 158.874 334.109 158.762 333.757C158.359 332.468 158.272 331.115 158.157 329.798V329C158.013 329.123 157.983 330.166 157.983 330.321C157.899 331.713 157.725 333.098 157.463 334.465C157.377 335.018 157.319 335.569 157 336.061C157 336.122 157 336.184 157.028 336.276C157.548 337.903 157.69 339.56 157.778 341.249V341.866C157.778 342.602 157.75 342.447 158.324 342.694C158.555 342.785 158.814 342.817 159.045 343C159.219 343 159.247 342.847 159.247 342.723L159.161 341.711V338.886C159.133 338.393 159.219 337.903 159.277 337.442L159.279 337.44Z" fill="#C2BFBF"/>
</g>
<g filter="url(#filter23_d_0_1)">
<path d="M156.043 288L157.562 290.722C157.903 291.224 158.273 291.669 158.709 292.083C159.986 293.287 161.176 294.571 162.272 295.928C164.844 299.153 166.58 302.733 167.819 306.606C168.562 308.971 168.966 311.398 168.996 313.852C169.12 321.188 166.485 327.487 161.173 332.723C160.309 333.553 159.375 334.314 158.381 335C157.855 335 157.606 334.615 157.389 334.26C156.994 333.602 156.731 332.88 156.614 332.13C156.427 331.243 156.305 330.355 156.365 329.439V329.025C156.322 328.937 155.858 288.209 156.043 288V288Z" fill="#599636"/>
</g>
<g filter="url(#filter24_d_0_1)">
<path d="M158.654 288.059C158.591 287.939 158.529 288.03 158.466 288.088C158.497 288.686 158.279 289.219 157.938 289.729C157.563 290.235 157.066 290.623 156.568 291.04C153.801 293.334 151.623 296.105 149.878 299.204C147.557 303.375 146.361 307.845 146.022 312.551C145.866 314.248 146.582 320.238 147.141 321.966C148.666 326.554 151.405 330.398 154.952 333.735C155.824 334.538 156.756 335.284 157.72 336C158 336 158.031 335.761 158.095 335.583C158.218 335.203 158.311 334.814 158.375 334.421L159 329.952L158.654 288.059Z" fill="#6CAC48"/>
</g>
<defs>
<filter id="filter0_d_0_1" x="57" y="35" width="85" height="91" filterUnits="userSpaceOnUse" color-interpolation-filters="sRGB">
<feFlood flood-opacity="0" result="BackgroundImageFix"/>
<feColorMatrix in="SourceAlpha" type="matrix" values="0 0 0 0 0 0 0 0 0 0 0 0 0 0 0 0 0 0 127 0" result="hardAlpha"/>
<feOffset dy="4"/>
<feGaussianBlur stdDeviation="2"/>
<feComposite in2="hardAlpha" operator="out"/>
<feColorMatrix type="matrix" values="0 0 0 0 0 0 0 0 0 0 0 0 0 0 0 0 0 0 0.25 0"/>
<feBlend mode="normal" in2="BackgroundImageFix" result="effect1_dropShadow_0_1"/>
<feBlend mode="normal" in="SourceGraphic" in2="effect1_dropShadow_0_1" result="shape"/>
</filter>
<filter id="filter1_d_0_1" x="77" y="85" width="27" height="25" filterUnits="userSpaceOnUse" color-interpolation-filters="sRGB">
<feFlood flood-opacity="0" result="BackgroundImageFix"/>
<feColorMatrix in="SourceAlpha" type="matrix" values="0 0 0 0 0 0 0 0 0 0 0 0 0 0 0 0 0 0 127 0" result="hardAlpha"/>
<feOffset dy="4"/>
<feGaussianBlur stdDeviation="2"/>
<feComposite in2="hardAlpha" operator="out"/>
<feColorMatrix type="matrix" values="0 0 0 0 0 0 0 0 0 0 0 0 0 0 0 0 0 0 0.25 0"/>
<feBlend mode="normal" in2="BackgroundImageFix" result="effect1_dropShadow_0_1"/>
<feBlend mode="normal" in="SourceGraphic" in2="effect1_dropShadow_0_1" result="shape"/>
</filter>
<filter id="filter2_d_0_1" x="77" y="68" width="27" height="25" filterUnits="userSpaceOnUse" color-interpolation-filters="sRGB">
<feFlood flood-opacity="0" result="BackgroundImageFix"/>
<feColorMatrix in="SourceAlpha" type="matrix" values="0 0 0 0 0 0 0 0 0 0 0 0 0 0 0 0 0 0 127 0" result="hardAlpha"/>
<feOffset dy="4"/>
<feGaussianBlur stdDeviation="2"/>
<feComposite in2="hardAlpha" operator="out"/>
<feColorMatrix type="matrix" values="0 0 0 0 0 0 0 0 0 0 0 0 0 0 0 0 0 0 0.25 0"/>
<feBlend mode="normal" in2="BackgroundImageFix" result="effect1_dropShadow_0_1"/>
<feBlend mode="normal" in="SourceGraphic" in2="effect1_dropShadow_0_1" result="shape"/>
</filter>
<filter id="filter3_d_0_1" x="77" y="51" width="27" height="25" filterUnits="userSpaceOnUse" color-interpolation-filters="sRGB">
<feFlood flood-opacity="0" result="BackgroundImageFix"/>
<feColorMatrix in="SourceAlpha" type="matrix" values="0 0 0 0 0 0 0 0 0 0 0 0 0 0 0 0 0 0 127 0" result="hardAlpha"/>
<feOffset dy="4"/>
<feGaussianBlur stdDeviation="2"/>
<feComposite in2="hardAlpha" operator="out"/>
<feColorMatrix type="matrix" values="0 0 0 0 0 0 0 0 0 0 0 0 0 0 0 0 0 0 0.25 0"/>
<feBlend mode="normal" in2="BackgroundImageFix" result="effect1_dropShadow_0_1"/>
<feBlend mode="normal" in="SourceGraphic" in2="effect1_dropShadow_0_1" result="shape"/>
</filter>
<filter id="filter4_d_0_1" x="95" y="51" width="28" height="25" filterUnits="userSpaceOnUse" color-interpolation-filters="sRGB">
<feFlood flood-opacity="0" result="BackgroundImageFix"/>
<feColorMatrix in="SourceAlpha" type="matrix" values="0 0 0 0 0 0 0 0 0 0 0 0 0 0 0 0 0 0 127 0" result="hardAlpha"/>
<feOffset dy="4"/>
<feGaussianBlur stdDeviation="2"/>
<feComposite in2="hardAlpha" operator="out"/>
<feColorMatrix type="matrix" values="0 0 0 0 0 0 0 0 0 0 0 0 0 0 0 0 0 0 0.25 0"/>
<feBlend mode="normal" in2="BackgroundImageFix" result="effect1_dropShadow_0_1"/>
<feBlend mode="normal" in="SourceGraphic" in2="effect1_dropShadow_0_1" result="shape"/>
</filter>
<filter id="filter5_d_0_1" x="95" y="68" width="28" height="25" filterUnits="userSpaceOnUse" color-interpolation-filters="sRGB">
<feFlood flood-opacity="0" result="BackgroundImageFix"/>
<feColorMatrix in="SourceAlpha" type="matrix" values="0 0 0 0 0 0 0 0 0 0 0 0 0 0 0 0 0 0 127 0" result="hardAlpha"/>
<feOffset dy="4"/>
<feGaussianBlur stdDeviation="2"/>
<feComposite in2="hardAlpha" operator="out"/>
<feColorMatrix type="matrix" values="0 0 0 0 0 0 0 0 0 0 0 0 0 0 0 0 0 0 0.25 0"/>
<feBlend mode="normal" in2="BackgroundImageFix" result="effect1_dropShadow_0_1"/>
<feBlend mode="normal" in="SourceGraphic" in2="effect1_dropShadow_0_1" result="shape"/>
</filter>
<filter id="filter6_d_0_1" x="0" y="130" width="145" height="145" filterUnits="userSpaceOnUse" color-interpolation-filters="sRGB">
<feFlood flood-opacity="0" result="BackgroundImageFix"/>
<feColorMatrix in="SourceAlpha" type="matrix" values="0 0 0 0 0 0 0 0 0 0 0 0 0 0 0 0 0 0 127 0" result="hardAlpha"/>
<feOffset dy="4"/>
<feGaussianBlur stdDeviation="2"/>
<feComposite in2="hardAlpha" operator="out"/>
<feColorMatrix type="matrix" values="0 0 0 0 0 0 0 0 0 0 0 0 0 0 0 0 0 0 0.25 0"/>
<feBlend mode="normal" in2="BackgroundImageFix" result="effect1_dropShadow_0_1"/>
<feBlend mode="normal" in="SourceGraphic" in2="effect1_dropShadow_0_1" result="shape"/>
</filter>
<filter id="filter7_d_0_1" x="28" y="198" width="32" height="29" filterUnits="userSpaceOnUse" color-interpolation-filters="sRGB">
<feFlood flood-opacity="0" result="BackgroundImageFix"/>
<feColorMatrix in="SourceAlpha" type="matrix" values="0 0 0 0 0 0 0 0 0 0 0 0 0 0 0 0 0 0 127 0" result="hardAlpha"/>
<feOffset dy="4"/>
<feGaussianBlur stdDeviation="2"/>
<feComposite in2="hardAlpha" operator="out"/>
<feColorMatrix type="matrix" values="0 0 0 0 0 0 0 0 0 0 0 0 0 0 0 0 0 0 0.25 0"/>
<feBlend mode="normal" in2="BackgroundImageFix" result="effect1_dropShadow_0_1"/>
<feBlend mode="normal" in="SourceGraphic" in2="effect1_dropShadow_0_1" result="shape"/>
</filter>
<filter id="filter8_d_0_1" x="52" y="161" width="41" height="44" filterUnits="userSpaceOnUse" color-interpolation-filters="sRGB">
<feFlood flood-opacity="0" result="BackgroundImageFix"/>
<feColorMatrix in="SourceAlpha" type="matrix" values="0 0 0 0 0 0 0 0 0 0 0 0 0 0 0 0 0 0 127 0" result="hardAlpha"/>
<feOffset dy="4"/>
<feGaussianBlur stdDeviation="2"/>
<feComposite in2="hardAlpha" operator="out"/>
<feColorMatrix type="matrix" values="0 0 0 0 0 0 0 0 0 0 0 0 0 0 0 0 0 0 0.25 0"/>
<feBlend mode="normal" in2="BackgroundImageFix" result="effect1_dropShadow_0_1"/>
<feBlend mode="normal" in="SourceGraphic" in2="effect1_dropShadow_0_1" result="shape"/>
</filter>
<filter id="filter9_d_0_1" x="81" y="161" width="30" height="83" filterUnits="userSpaceOnUse" color-interpolation-filters="sRGB">
<feFlood flood-opacity="0" result="BackgroundImageFix"/>
<feColorMatrix in="SourceAlpha" type="matrix" values="0 0 0 0 0 0 0 0 0 0 0 0 0 0 0 0 0 0 127 0" result="hardAlpha"/>
<feOffset dy="4"/>
<feGaussianBlur stdDeviation="2"/>
<feComposite in2="hardAlpha" operator="out"/>
<feColorMatrix type="matrix" values="0 0 0 0 0 0 0 0 0 0 0 0 0 0 0 0 0 0 0.25 0"/>
<feBlend mode="normal" in2="BackgroundImageFix" result="effect1_dropShadow_0_1"/>
<feBlend mode="normal" in="SourceGraphic" in2="effect1_dropShadow_0_1" result="shape"/>
</filter>
<filter id="filter10_d_0_1" x="28" y="179" width="66" height="65" filterUnits="userSpaceOnUse" color-interpolation-filters="sRGB">
<feFlood flood-opacity="0" result="BackgroundImageFix"/>
<feColorMatrix in="SourceAlpha" type="matrix" values="0 0 0 0 0 0 0 0 0 0 0 0 0 0 0 0 0 0 127 0" result="hardAlpha"/>
<feOffset dy="4"/>
<feGaussianBlur stdDeviation="2"/>
<feComposite in2="hardAlpha" operator="out"/>
<feColorMatrix type="matrix" values="0 0 0 0 0 0 0 0 0 0 0 0 0 0 0 0 0 0 0.25 0"/>
<feBlend mode="normal" in2="BackgroundImageFix" result="effect1_dropShadow_0_1"/>
<feBlend mode="normal" in="SourceGraphic" in2="effect1_dropShadow_0_1" result="shape"/>
</filter>
<filter id="filter11_d_0_1" x="272" y="118" width="106" height="106" filterUnits="userSpaceOnUse" color-interpolation-filters="sRGB">
<feFlood flood-opacity="0" result="BackgroundImageFix"/>
<feColorMatrix in="SourceAlpha" type="matrix" values="0 0 0 0 0 0 0 0 0 0 0 0 0 0 0 0 0 0 127 0" result="hardAlpha"/>
<feOffset dy="4"/>
<feGaussianBlur stdDeviation="2"/>
<feComposite in2="hardAlpha" operator="out"/>
<feColorMatrix type="matrix" values="0 0 0 0 0 0 0 0 0 0 0 0 0 0 0 0 0 0 0.25 0"/>
<feBlend mode="normal" in2="BackgroundImageFix" result="effect1_dropShadow_0_1"/>
<feBlend mode="normal" in="SourceGraphic" in2="effect1_dropShadow_0_1" result="shape"/>
</filter>
<filter id="filter12_d_0_1" x="294" y="136" width="61" height="70" filterUnits="userSpaceOnUse" color-interpolation-filters="sRGB">
<feFlood flood-opacity="0" result="BackgroundImageFix"/>
<feColorMatrix in="SourceAlpha" type="matrix" values="0 0 0 0 0 0 0 0 0 0 0 0 0 0 0 0 0 0 127 0" result="hardAlpha"/>
<feOffset dy="4"/>
<feGaussianBlur stdDeviation="2"/>
<feComposite in2="hardAlpha" operator="out"/>
<feColorMatrix type="matrix" values="0 0 0 0 0 0 0 0 0 0 0 0 0 0 0 0 0 0 0.25 0"/>
<feBlend mode="normal" in2="BackgroundImageFix" result="effect1_dropShadow_0_1"/>
<feBlend mode="normal" in="SourceGraphic" in2="effect1_dropShadow_0_1" result="shape"/>
</filter>
<filter id="filter13_d_0_1" x="321" y="142" width="30" height="58" filterUnits="userSpaceOnUse" color-interpolation-filters="sRGB">
<feFlood flood-opacity="0" result="BackgroundImageFix"/>
<feColorMatrix in="SourceAlpha" type="matrix" values="0 0 0 0 0 0 0 0 0 0 0 0 0 0 0 0 0 0 127 0" result="hardAlpha"/>
<feOffset dy="4"/>
<feGaussianBlur stdDeviation="2"/>
<feComposite in2="hardAlpha" operator="out"/>
<feColorMatrix type="matrix" values="0 0 0 0 0 0 0 0 0 0 0 0 0 0 0 0 0 0 0.25 0"/>
<feBlend mode="normal" in2="BackgroundImageFix" result="effect1_dropShadow_0_1"/>
<feBlend mode="normal" in="SourceGraphic" in2="effect1_dropShadow_0_1" result="shape"/>
</filter>
<filter id="filter14_d_0_1" x="303" y="148" width="42" height="46" filterUnits="userSpaceOnUse" color-interpolation-filters="sRGB">
<feFlood flood-opacity="0" result="BackgroundImageFix"/>
<feColorMatrix in="SourceAlpha" type="matrix" values="0 0 0 0 0 0 0 0 0 0 0 0 0 0 0 0 0 0 127 0" result="hardAlpha"/>
<feOffset dy="4"/>
<feGaussianBlur stdDeviation="2"/>
<feComposite in2="hardAlpha" operator="out"/>
<feColorMatrix type="matrix" values="0 0 0 0 0 0 0 0 0 0 0 0 0 0 0 0 0 0 0.25 0"/>
<feBlend mode="normal" in2="BackgroundImageFix" result="effect1_dropShadow_0_1"/>
<feBlend mode="normal" in="SourceGraphic" in2="effect1_dropShadow_0_1" result="shape"/>
</filter>
<filter id="filter15_d_0_1" x="167" y="0" width="112" height="112" filterUnits="userSpaceOnUse" color-interpolation-filters="sRGB">
<feFlood flood-opacity="0" result="BackgroundImageFix"/>
<feColorMatrix in="SourceAlpha" type="matrix" values="0 0 0 0 0 0 0 0 0 0 0 0 0 0 0 0 0 0 127 0" result="hardAlpha"/>
<feOffset dy="4"/>
<feGaussianBlur stdDeviation="2"/>
<feComposite in2="hardAlpha" operator="out"/>
<feColorMatrix type="matrix" values="0 0 0 0 0 0 0 0 0 0 0 0 0 0 0 0 0 0 0.25 0"/>
<feBlend mode="normal" in2="BackgroundImageFix" result="effect1_dropShadow_0_1"/>
<feBlend mode="normal" in="SourceGraphic" in2="effect1_dropShadow_0_1" result="shape"/>
</filter>
<filter id="filter16_d_0_1" x="189.941" y="23.7059" width="66.8824" height="64.5883" filterUnits="userSpaceOnUse" color-interpolation-filters="sRGB">
<feFlood flood-opacity="0" result="BackgroundImageFix"/>
<feColorMatrix in="SourceAlpha" type="matrix" values="0 0 0 0 0 0 0 0 0 0 0 0 0 0 0 0 0 0 127 0" result="hardAlpha"/>
<feOffset dy="4"/>
<feGaussianBlur stdDeviation="2"/>
<feComposite in2="hardAlpha" operator="out"/>
<feColorMatrix type="matrix" values="0 0 0 0 0 0 0 0 0 0 0 0 0 0 0 0 0 0 0.25 0"/>
<feBlend mode="normal" in2="BackgroundImageFix" result="effect1_dropShadow_0_1"/>
<feBlend mode="normal" in="SourceGraphic" in2="effect1_dropShadow_0_1" result="shape"/>
</filter>
<filter id="filter17_d_0_1" x="176" y="141" width="64" height="64" filterUnits="userSpaceOnUse" color-interpolation-filters="sRGB">
<feFlood flood-opacity="0" result="BackgroundImageFix"/>
<feColorMatrix in="SourceAlpha" type="matrix" values="0 0 0 0 0 0 0 0 0 0 0 0 0 0 0 0 0 0 127 0" result="hardAlpha"/>
<feOffset dy="4"/>
<feGaussianBlur stdDeviation="2"/>
<feComposite in2="hardAlpha" operator="out"/>
<feColorMatrix type="matrix" values="0 0 0 0 0 0 0 0 0 0 0 0 0 0 0 0 0 0 0.25 0"/>
<feBlend mode="normal" in2="BackgroundImageFix" result="effect1_dropShadow_0_1"/>
<feBlend mode="normal" in="SourceGraphic" in2="effect1_dropShadow_0_1" result="shape"/>
</filter>
<filter id="filter18_d_0_1" x="185" y="157" width="46" height="32" filterUnits="userSpaceOnUse" color-interpolation-filters="sRGB">
<feFlood flood-opacity="0" result="BackgroundImageFix"/>
<feColorMatrix in="SourceAlpha" type="matrix" values="0 0 0 0 0 0 0 0 0 0 0 0 0 0 0 0 0 0 127 0" result="hardAlpha"/>
<feOffset dy="4"/>
<feGaussianBlur stdDeviation="2"/>
<feComposite in2="hardAlpha" operator="out"/>
<feColorMatrix type="matrix" values="0 0 0 0 0 0 0 0 0 0 0 0 0 0 0 0 0 0 0.25 0"/>
<feBlend mode="normal" in2="BackgroundImageFix" result="effect1_dropShadow_0_1"/>
<feBlend mode="normal" in="SourceGraphic" in2="effect1_dropShadow_0_1" result="shape"/>
</filter>
<filter id="filter19_d_0_1" x="219" y="230" width="103" height="103" filterUnits="userSpaceOnUse" color-interpolation-filters="sRGB">
<feFlood flood-opacity="0" result="BackgroundImageFix"/>
<feColorMatrix in="SourceAlpha" type="matrix" values="0 0 0 0 0 0 0 0 0 0 0 0 0 0 0 0 0 0 127 0" result="hardAlpha"/>
<feOffset dy="4"/>
<feGaussianBlur stdDeviation="2"/>
<feComposite in2="hardAlpha" operator="out"/>
<feColorMatrix type="matrix" values="0 0 0 0 0 0 0 0 0 0 0 0 0 0 0 0 0 0 0.25 0"/>
<feBlend mode="normal" in2="BackgroundImageFix" result="effect1_dropShadow_0_1"/>
<feBlend mode="normal" in="SourceGraphic" in2="effect1_dropShadow_0_1" result="shape"/>
</filter>
<filter id="filter20_d_0_1" x="237" y="255" width="67" height="54" filterUnits="userSpaceOnUse" color-interpolation-filters="sRGB">
<feFlood flood-opacity="0" result="BackgroundImageFix"/>
<feColorMatrix in="SourceAlpha" type="matrix" values="0 0 0 0 0 0 0 0 0 0 0 0 0 0 0 0 0 0 127 0" result="hardAlpha"/>
<feOffset dy="4"/>
<feGaussianBlur stdDeviation="2"/>
<feComposite in2="hardAlpha" operator="out"/>
<feColorMatrix type="matrix" values="0 0 0 0 0 0 0 0 0 0 0 0 0 0 0 0 0 0 0.25 0"/>
<feBlend mode="normal" in2="BackgroundImageFix" result="effect1_dropShadow_0_1"/>
<feBlend mode="normal" in="SourceGraphic" in2="effect1_dropShadow_0_1" result="shape"/>
</filter>
<filter id="filter21_d_0_1" x="117" y="279" width="81" height="81" filterUnits="userSpaceOnUse" color-interpolation-filters="sRGB">
<feFlood flood-opacity="0" result="BackgroundImageFix"/>
<feColorMatrix in="SourceAlpha" type="matrix" values="0 0 0 0 0 0 0 0 0 0 0 0 0 0 0 0 0 0 127 0" result="hardAlpha"/>
<feOffset dy="4"/>
<feGaussianBlur stdDeviation="2"/>
<feComposite in2="hardAlpha" operator="out"/>
<feColorMatrix type="matrix" values="0 0 0 0 0 0 0 0 0 0 0 0 0 0 0 0 0 0 0.25 0"/>
<feBlend mode="normal" in2="BackgroundImageFix" result="effect1_dropShadow_0_1"/>
<feBlend mode="normal" in="SourceGraphic" in2="effect1_dropShadow_0_1" result="shape"/>
</filter>
<filter id="filter22_d_0_1" x="153" y="329" width="11" height="22" filterUnits="userSpaceOnUse" color-interpolation-filters="sRGB">
<feFlood flood-opacity="0" result="BackgroundImageFix"/>
<feColorMatrix in="SourceAlpha" type="matrix" values="0 0 0 0 0 0 0 0 0 0 0 0 0 0 0 0 0 0 127 0" result="hardAlpha"/>
<feOffset dy="4"/>
<feGaussianBlur stdDeviation="2"/>
<feComposite in2="hardAlpha" operator="out"/>
<feColorMatrix type="matrix" values="0 0 0 0 0 0 0 0 0 0 0 0 0 0 0 0 0 0 0.25 0"/>
<feBlend mode="normal" in2="BackgroundImageFix" result="effect1_dropShadow_0_1"/>
<feBlend mode="normal" in="SourceGraphic" in2="effect1_dropShadow_0_1" result="shape"/>
</filter>
<filter id="filter23_d_0_1" x="152" y="288" width="21" height="55" filterUnits="userSpaceOnUse" color-interpolation-filters="sRGB">
<feFlood flood-opacity="0" result="BackgroundImageFix"/>
<feColorMatrix in="SourceAlpha" type="matrix" values="0 0 0 0 0 0 0 0 0 0 0 0 0 0 0 0 0 0 127 0" result="hardAlpha"/>
<feOffset dy="4"/>
<feGaussianBlur stdDeviation="2"/>
<feComposite in2="hardAlpha" operator="out"/>
<feColorMatrix type="matrix" values="0 0 0 0 0 0 0 0 0 0 0 0 0 0 0 0 0 0 0.25 0"/>
<feBlend mode="normal" in2="BackgroundImageFix" result="effect1_dropShadow_0_1"/>
<feBlend mode="normal" in="SourceGraphic" in2="effect1_dropShadow_0_1" result="shape"/>
</filter>
<filter id="filter24_d_0_1" x="142" y="288" width="21" height="56" filterUnits="userSpaceOnUse" color-interpolation-filters="sRGB">
<feFlood flood-opacity="0" result="BackgroundImageFix"/>
<feColorMatrix in="SourceAlpha" type="matrix" values="0 0 0 0 0 0 0 0 0 0 0 0 0 0 0 0 0 0 127 0" result="hardAlpha"/>
<feOffset dy="4"/>
<feGaussianBlur stdDeviation="2"/>
<feComposite in2="hardAlpha" operator="out"/>
<feColorMatrix type="matrix" values="0 0 0 0 0 0 0 0 0 0 0 0 0 0 0 0 0 0 0.25 0"/>
<feBlend mode="normal" in2="BackgroundImageFix" result="effect1_dropShadow_0_1"/>
<feBlend mode="normal" in="SourceGraphic" in2="effect1_dropShadow_0_1" result="shape"/>
</filter>
</defs>
</svg>
