<svg width="465" height="310" viewBox="0 0 465 310" fill="none" xmlns="http://www.w3.org/2000/svg">
<rect width="465" height="310" fill="#F5F5F5"/>
<path d="M237.003 200.546L410.553 84.0089V305.309" stroke="#F31039" stroke-width="6"/>
<path d="M461.635 26.5514V279.93" stroke="#F31039" stroke-width="6"/>
<path d="M432.638 3L234.995 133.345L36.9071 4.21851" stroke="#F31039" stroke-width="6"/>
<path d="M3 28.5818V280.336" stroke="#F31039" stroke-width="6"/>
<path d="M56.5373 306.323L55.6451 78.9321" stroke="#F31039" stroke-width="6"/>
<path d="M55.6451 78.9321L237.003 200.546" stroke="#F31039" stroke-width="6"/>
<path d="M3 28.5818C5.82188 18.0643 11.6589 11.1274 20.5112 7.77136C25.1516 5.84793 30.617 4.6636 36.907 4.21854" stroke="#F31039" stroke-width="6"/>
<path d="M432.638 3C444.17 4.95566 451.68 8.33936 455.168 13.1512C459.054 17.4599 461.211 21.9266 461.637 26.5513" stroke="#F31039" stroke-width="6"/>
<path d="M410.553 305.309C442.604 309.243 459.632 300.784 461.637 279.93" stroke="#F31039" stroke-width="6"/>
<path d="M3 280.336C7.67654 300.943 25.5222 309.605 56.5373 306.324" stroke="#F31039" stroke-width="6"/>
</svg>
